<svg xmlns="http://www.w3.org/2000/svg" viewBox="0 0 160 160">
  <defs>
    <linearGradient id="road" x1="0" y1="0" x2="1" y2="1">
      <stop offset="0" stop-color="#0f2f6d"/>
      <stop offset="0.58" stop-color="#0b4fb3"/>
      <stop offset="1" stop-color="#0877ff"/>
    </linearGradient>
    <linearGradient id="accent" x1="0" y1="0" x2="1" y2="1">
      <stop offset="0" stop-color="#38bdf8"/>
      <stop offset="1" stop-color="#0b63f6"/>
    </linearGradient>
  </defs>
  <rect width="160" height="160" rx="34" fill="#ffffff"/>
  <path
    d="M14 13h70c29 0 50 7 63 22 10 11 15 25 15 43 0 19-6 34-17 45-10 9-23 15-39 19l31 38H99l-35-45h22c16 0 28-3 36-10 7-6 11-15 11-27 0-12-4-20-11-26-8-6-19-9-35-9H35z"
    fill="url(#road)"
  />
  <path
    d="M12 149c25-45 50-77 74-98 18-14 35-24 50-30-23 19-43 41-59 68-16 26-27 46-34 60z"
    fill="url(#road)"
  />
  <path
    d="M78 149c9-25 20-46 34-64 13-17 28-30 45-40-12 16-21 32-27 48l41 56h-38l-22-32c-5 10-8 21-11 32z"
    fill="url(#accent)"
  />
  <path d="M50 118h13l-6 15H44z" fill="#f8fafc"/>
  <path d="M64 90h12l-6 14H57z" fill="#f8fafc"/>
</svg>
