<svg xmlns="http://www.w3.org/2000/svg" viewBox="0 0 180 180">
  <defs>
    <linearGradient id="markNavy" x1="0" y1="0" x2="1" y2="1">
      <stop offset="0" stop-color="#0f2f6d"/>
      <stop offset="1" stop-color="#082b63"/>
    </linearGradient>
    <linearGradient id="roadBlue" x1="0" y1="1" x2="1" y2="0">
      <stop offset="0" stop-color="#0b4fb3"/>
      <stop offset="0.55" stop-color="#0b63f6"/>
      <stop offset="1" stop-color="#2ea8ff"/>
    </linearGradient>
  </defs>

  <rect width="180" height="180" rx="36" fill="#ffffff"/>

  <path
    d="M16 18h78c28 0 49 7 63 21 12 12 18 28 18 47 0 20-6 37-19 48-9 8-20 14-34 17l34 44h-40l-42-57h23c15 0 26-3 34-10 7-7 11-16 11-29 0-12-4-22-11-28-8-7-19-10-35-10H41z"
    fill="url(#markNavy)"
  />

  <path d="M109 104l58 58h-41l-37-41z" fill="#0b63f6"/>

  <path
    d="M27 157C49 116 78 84 143 49"
    fill="none"
    stroke="url(#roadBlue)"
    stroke-width="32"
    stroke-linecap="round"
    stroke-linejoin="round"
  />

  <path
    d="M32 149C53 112 82 83 139 54"
    fill="none"
    stroke="#ffffff"
    stroke-width="5"
    stroke-linecap="round"
    stroke-dasharray="14 14"
  />
</svg>
